# xmcd
#
# Track frame offsets:
#	151
#	14446
#	29778
#	44520
#	60835
#	75496
#	89565
#	109053
#	129215
#	142013
#
# Disc length: 2125 seconds
#
# Revision: 1
# Processed by: cddbd v1.5.1PL0 Copyright (c) Steve Scherf et al.
# Submitted via: CDex 1.50Beta5
#
DISCID=81084b0a
DTITLE=サウンドトラック - サウンドセレクション2
DYEAR=1900
DGENRE=Soundtrack
TTITLE0=サウンドトラック/ドライビング.ハイウェイ
TTITLE1=テクノシティ
TTITLE2=サウンドトラック/マウンテン.ハイ
TTITLE3=サウンドトラック/モア.ディープス
TTITLE4=サウンドトラック/レッツ.ゲット.トゥゲザー
TTITLE5=サウンドトラック/ジョイン.アス
TTITLE6=サウンドトラック/ネヴァー.スロー.ダウン
TTITLE7=スリリング
TTITLE8=ルート311
TTITLE9=炎のように
EXTD=
EXTT0=
EXTT1=
EXTT2=
EXTT3=
EXTT4=
EXTT5=
EXTT6=
EXTT7=
EXTT8=
EXTT9=
PLAYORDER=
